<svg width="137" height="29" viewBox="0 0 137 29" fill="none" xmlns="http://www.w3.org/2000/svg">
<rect width="135" height="11" fill="#EC787D"/>
<rect width="109" height="11" fill="#59C0A4"/>
<path d="M3.24 28.044V27.072C1.776 26.94 0.72 26.136 0.72 24.78H2.184C2.232 25.38 2.568 25.824 3.24 25.944V23.304C2.04 23.004 0.72 22.668 0.72 20.976C0.72 19.632 1.752 18.708 3.24 18.576V17.592H4.02V18.564C5.4 18.684 6.336 19.44 6.444 20.796H4.98C4.932 20.316 4.596 19.872 4.02 19.728V22.32C5.22 22.608 6.528 22.932 6.528 24.624C6.528 25.788 5.64 26.916 4.02 27.06V28.044H3.24ZM5.148 24.696C5.148 24.012 4.668 23.712 4.02 23.508V25.944C4.74 25.824 5.148 25.32 5.148 24.696ZM2.112 20.904C2.112 21.6 2.592 21.912 3.24 22.116V19.692C2.58 19.776 2.112 20.172 2.112 20.904ZM9.46069 27V19.5H8.34469V18.252H10.8407V27H9.46069ZM12.612 26.88V25.884C14.676 24.072 16.848 22.488 16.848 20.772C16.848 19.86 16.452 19.236 15.432 19.236C14.472 19.236 13.956 19.908 13.92 20.892H12.6C12.648 18.996 13.872 18.072 15.42 18.072C17.196 18.072 18.204 19.14 18.204 20.712C18.204 22.836 16.044 24.456 14.64 25.74H18.444V26.88H12.612ZM20.0058 18.228H25.2858V19.428H21.2658V21.816C21.5898 21.384 22.2978 21.024 23.0778 21.024C25.2258 21.024 25.8858 22.62 25.8858 23.94C25.8858 25.68 24.8898 27 22.8618 27C21.0618 27 20.0178 26.004 19.8138 24.636H21.1458C21.3258 25.38 21.9498 25.86 22.8738 25.86C24.0498 25.86 24.5778 25.056 24.5778 23.976C24.5778 22.836 24.0138 22.188 22.8738 22.188C22.0698 22.188 21.5298 22.632 21.3018 23.28H20.0058V18.228ZM28.9058 26.208C28.9058 26.7 28.5218 27.084 28.0418 27.084C27.5498 27.084 27.1658 26.7 27.1658 26.208C27.1658 25.716 27.5498 25.332 28.0418 25.332C28.5218 25.332 28.9058 25.716 28.9058 26.208ZM36.1684 20.28H34.9084C34.7404 19.572 34.3204 19.176 33.4564 19.176C32.2204 19.176 31.5844 20.016 31.5484 22.308C31.9804 21.588 32.8444 21.204 33.7564 21.204C35.3284 21.204 36.4444 22.26 36.4444 24.084C36.4444 25.74 35.4484 27 33.5764 27C31.0324 27 30.3724 25.212 30.3724 22.428C30.3724 19.692 31.2844 18.036 33.4684 18.036C35.1724 18.036 36.0244 19.116 36.1684 20.28ZM33.4564 22.356C32.5564 22.356 31.7044 22.896 31.7044 24.06C31.7044 25.14 32.3404 25.86 33.5044 25.86C34.5124 25.86 35.1364 25.176 35.1364 24.144C35.1364 23.1 34.6084 22.356 33.4564 22.356ZM38.2636 18.228H43.5436V19.428H39.5236V21.816C39.8476 21.384 40.5556 21.024 41.3356 21.024C43.4836 21.024 44.1436 22.62 44.1436 23.94C44.1436 25.68 43.1476 27 41.1196 27C39.3196 27 38.2756 26.004 38.0716 24.636H39.4036C39.5836 25.38 40.2076 25.86 41.1316 25.86C42.3076 25.86 42.8356 25.056 42.8356 23.976C42.8356 22.836 42.2716 22.188 41.1316 22.188C40.3276 22.188 39.7876 22.632 39.5596 23.28H38.2636V18.228Z" fill="#59C0A4"/>
<path d="M89.044 23.232V22.08H93.976V23.232H89.044ZM98.2595 28.044V27.072C96.7955 26.94 95.7395 26.136 95.7395 24.78H97.2035C97.2515 25.38 97.5875 25.824 98.2595 25.944V23.304C97.0595 23.004 95.7395 22.668 95.7395 20.976C95.7395 19.632 96.7715 18.708 98.2595 18.576V17.592H99.0395V18.564C100.42 18.684 101.356 19.44 101.464 20.796H99.9995C99.9515 20.316 99.6155 19.872 99.0395 19.728V22.32C100.24 22.608 101.548 22.932 101.548 24.624C101.548 25.788 100.66 26.916 99.0395 27.06V28.044H98.2595ZM100.168 24.696C100.168 24.012 99.6875 23.712 99.0395 23.508V25.944C99.7595 25.824 100.168 25.32 100.168 24.696ZM97.1315 20.904C97.1315 21.6 97.6115 21.912 98.2595 22.116V19.692C97.5995 19.776 97.1315 20.172 97.1315 20.904ZM107.72 27V25.176H103.376V24.144L107.408 18.36H109.064V23.988H110.18V25.176H109.064V27H107.72ZM104.948 23.988H107.78V19.752L104.948 23.988ZM112.79 22.428C112.046 22.056 111.542 21.432 111.542 20.46C111.542 19.188 112.49 18.096 114.422 18.096C116.354 18.096 117.302 19.2 117.302 20.46C117.302 21.396 116.762 22.08 116.054 22.428C116.942 22.764 117.53 23.544 117.53 24.588C117.53 26.184 116.234 27.216 114.422 27.216C112.622 27.216 111.326 26.184 111.326 24.588C111.326 23.532 111.914 22.752 112.79 22.428ZM114.422 21.996C115.334 21.996 115.994 21.42 115.994 20.628C115.994 19.728 115.382 19.236 114.422 19.236C113.486 19.236 112.862 19.716 112.862 20.64C112.862 21.432 113.51 21.996 114.422 21.996ZM114.422 23.028C113.414 23.028 112.634 23.52 112.634 24.54C112.634 25.428 113.306 26.076 114.422 26.076C115.526 26.076 116.186 25.416 116.186 24.54C116.186 23.556 115.454 23.028 114.422 23.028ZM120.562 26.208C120.562 26.7 120.178 27.084 119.698 27.084C119.206 27.084 118.822 26.7 118.822 26.208C118.822 25.716 119.206 25.332 119.698 25.332C120.178 25.332 120.562 25.716 120.562 26.208ZM127.825 20.28H126.565C126.397 19.572 125.977 19.176 125.113 19.176C123.877 19.176 123.241 20.016 123.205 22.308C123.637 21.588 124.501 21.204 125.413 21.204C126.985 21.204 128.101 22.26 128.101 24.084C128.101 25.74 127.105 27 125.233 27C122.689 27 122.029 25.212 122.029 22.428C122.029 19.692 122.941 18.036 125.125 18.036C126.829 18.036 127.681 19.116 127.825 20.28ZM125.113 22.356C124.213 22.356 123.361 22.896 123.361 24.06C123.361 25.14 123.997 25.86 125.161 25.86C126.169 25.86 126.793 25.176 126.793 24.144C126.793 23.1 126.265 22.356 125.113 22.356ZM129.92 18.228H135.2V19.428H131.18V21.816C131.504 21.384 132.212 21.024 132.992 21.024C135.14 21.024 135.8 22.62 135.8 23.94C135.8 25.68 134.804 27 132.776 27C130.976 27 129.932 26.004 129.728 24.636H131.06C131.24 25.38 131.864 25.86 132.788 25.86C133.964 25.86 134.492 25.056 134.492 23.976C134.492 22.836 133.928 22.188 132.788 22.188C131.984 22.188 131.444 22.632 131.216 23.28H129.92V18.228Z" fill="#EC787D"/>
</svg>
