<svg width="85" height="77" viewBox="0 0 85 77" fill="none" xmlns="http://www.w3.org/2000/svg">
<path d="M52.1332 1.22466C60.4556 3.37546 67.8189 8.24951 73.05 15.0703C78.2811 21.8912 81.0791 30.2664 80.9983 38.8619L69.531 38.7541C69.5877 32.7189 67.6231 26.8384 63.9502 22.0492C60.2773 17.2601 55.1073 13.8378 49.2638 12.3277L52.1332 1.22466Z" fill="#EC787D"/>
<path d="M4 38.5C4 32.7207 5.30112 27.0155 7.80685 21.8076C10.3126 16.5997 13.9586 12.0228 18.4746 8.4163C22.9905 4.80979 28.2604 2.26623 33.8935 0.974294C39.5266 -0.317645 45.3782 -0.324817 51.0145 0.95331L48.4601 12.2173C44.5148 11.3226 40.4186 11.3276 36.4755 12.232C32.5323 13.1364 28.8434 14.9169 25.6822 17.4414C22.521 19.966 19.9688 23.1698 18.2148 26.8153C16.4608 30.4608 15.55 34.4545 15.55 38.5L4 38.5Z" fill="#59C0A4"/>
<rect y="43" width="15" height="11" rx="5.5" fill="#59C0A4" fill-opacity="0.1"/>
<path d="M4.9 44.69H9.3V45.69H5.95V47.68C6.22 47.32 6.81 47.02 7.46 47.02C9.25 47.02 9.8 48.35 9.8 49.45C9.8 50.9 8.97 52 7.28 52C5.78 52 4.91 51.17 4.74 50.03H5.85C6 50.65 6.52 51.05 7.29 51.05C8.27 51.05 8.71 50.38 8.71 49.48C8.71 48.53 8.24 47.99 7.29 47.99C6.62 47.99 6.17 48.36 5.98 48.9H4.9V44.69Z" fill="#59C0A4"/>
<rect x="35" y="43" width="15" height="11" rx="5.5" fill="#488995" fill-opacity="0.1"/>
<path d="M39.6 48.26C39.6 46.18 40.16 44.58 42.2 44.58C44.24 44.58 44.8 46.18 44.8 48.26C44.8 50.38 44.24 51.98 42.2 51.98C40.16 51.98 39.6 50.38 39.6 48.26ZM43.68 48.26C43.68 46.9 43.53 45.62 42.2 45.62C40.87 45.62 40.72 46.9 40.72 48.26C40.72 49.69 40.87 50.94 42.2 50.94C43.53 50.94 43.68 49.69 43.68 48.26Z" fill="#488995"/>
<rect x="70" y="43" width="15" height="11" rx="5.5" fill="#EC787D" fill-opacity="0.1"/>
<path d="M74.88 44.76H79.23V45.56H75.72V47.84C76.02 47.43 76.66 47.11 77.37 47.11C79.13 47.11 79.69 48.38 79.69 49.5C79.69 50.9 78.91 52.02 77.22 52.02C75.78 52.02 74.91 51.21 74.73 50.04H75.62C75.79 50.8 76.38 51.25 77.23 51.25C78.33 51.25 78.82 50.51 78.82 49.52C78.82 48.49 78.29 47.89 77.24 47.89C76.51 47.89 75.98 48.27 75.74 48.84H74.88V44.76Z" fill="#EC787D"/>
</svg>
