<svg width="72" height="44" viewBox="0 0 72 44" fill="none" xmlns="http://www.w3.org/2000/svg">
<path d="M7.81122 9.92683C6.71081 12.2216 0 12.3333 0 12.3333V44H71V26.4286C71 26.4286 66.1995 22.17 63.1999 22.561C60.7815 22.8762 60.4435 26.1005 58.0072 26.1707C56.1878 26.2232 55.4833 24.6223 53.68 24.3659C50.9185 23.9732 49.4532 26.9042 46.7564 26.1707C42.6586 25.0563 45.3747 18.1694 41.5637 16.2439C39.7136 15.3091 38.1019 16.2439 36.371 15.3415C29.4474 11.7317 32.6297 4.98812e-10 28.582 0C24.2547 -5.33255e-10 25.7523 12.1071 21.6584 9.92683C20.3814 9.24674 20.3934 7.77482 19.062 7.21951C16.7506 6.25542 15.3938 10.9236 13.0039 9.92683C11.6725 9.37152 11.273 7.21945 10.4076 7.21951C9.54212 7.21957 8.67667 8.12201 7.81122 9.92683Z" fill="url(#paint0_linear_2619_5205)"/>
<path d="M1.09521 12.3332C1.09521 12.3332 6.14176 12.8115 7.26188 10.5713C8.14283 8.80949 9.02379 7.92854 9.90474 7.92848C10.7857 7.92842 11.1924 10.0292 12.5476 10.5713C14.9803 11.5444 16.3614 6.98734 18.7143 7.92848C20.0695 8.47056 20.0572 9.90744 21.3571 10.5713C25.5244 12.6997 24 0.880859 28.4047 0.880859C32.525 0.880859 29.2857 12.3332 36.3333 15.857C38.0952 16.738 39.7358 15.8255 41.619 16.738C45.4984 18.6177 42.7336 25.3406 46.9047 26.4285C49.6499 27.1445 51.1414 24.2833 53.9524 24.6666C55.788 24.9169 56.5052 26.4797 58.3571 26.4285C60.837 26.3599 61.1811 23.2124 63.6428 22.9047C66.6962 22.523 70.6905 26.4285 70.6905 26.4285" stroke="#59C0A4" stroke-linecap="round"/>
<defs>
<linearGradient id="paint0_linear_2619_5205" x1="35.9383" y1="-2.54321e-09" x2="36" y2="44" gradientUnits="userSpaceOnUse">
<stop stop-color="#59C0A4"/>
<stop offset="1" stop-color="#59C0A4" stop-opacity="0"/>
</linearGradient>
</defs>
</svg>
