<svg width="28" height="29" viewBox="0 0 28 29" fill="none" xmlns="http://www.w3.org/2000/svg">
<g clip-path="url(#clip0_5532_573)">
<circle cx="5.14283" cy="5.14283" r="5.14283" transform="matrix(-1 0 0 1 19.1426 2.87598)" stroke="white" stroke-width="1.92856"/>
<path d="M5 20.7922C5 19.6861 5.69538 18.6993 6.73711 18.3273V18.3273C11.4337 16.6499 16.5662 16.6499 21.2628 18.3273V18.3273C22.3045 18.6993 22.9999 19.6861 22.9999 20.7922V22.4836C22.9999 24.0103 21.6477 25.183 20.1364 24.9671L18.9093 24.7918C15.6529 24.3266 12.347 24.3266 9.09064 24.7918L7.86354 24.9671C6.35219 25.183 5 24.0103 5 22.4836V20.7922Z" stroke="white" stroke-width="1.92856"/>
</g>
<defs>
<clipPath id="clip0_5532_573">
<rect width="28" height="28" fill="white" transform="translate(0 0.417969)"/>
</clipPath>
</defs>
</svg>
