<svg width="28" height="29" viewBox="0 0 28 29" fill="none" xmlns="http://www.w3.org/2000/svg">
<g clip-path="url(#clip0_6058_668)">
<path d="M25.9167 25.2513H4.25C3.96268 25.2513 3.68713 25.1372 3.48397 24.934C3.2808 24.7308 3.16667 24.4553 3.16667 24.168V2.5013C3.16667 2.21398 3.05253 1.93843 2.84937 1.73527C2.6462 1.53211 2.37065 1.41797 2.08333 1.41797C1.79602 1.41797 1.52047 1.53211 1.3173 1.73527C1.11414 1.93843 1 2.21398 1 2.5013L1 24.168C1 25.0299 1.34241 25.8566 1.9519 26.4661C2.5614 27.0756 3.38805 27.418 4.25 27.418H25.9167C26.204 27.418 26.4795 27.3038 26.6827 27.1007C26.8859 26.8975 27 26.622 27 26.3346C27 26.0473 26.8859 25.7718 26.6827 25.5686C26.4795 25.3654 26.204 25.2513 25.9167 25.2513Z" fill="white"/>
<path d="M17.2501 23.085C17.5374 23.085 17.813 22.9708 18.0161 22.7677C18.2193 22.5645 18.3334 22.2889 18.3334 22.0016V14.4183C18.3334 14.131 18.2193 13.8554 18.0161 13.6523C17.813 13.4491 17.5374 13.335 17.2501 13.335C16.9628 13.335 16.6872 13.4491 16.4841 13.6523C16.2809 13.8554 16.1667 14.131 16.1667 14.4183V22.0016C16.1667 22.2889 16.2809 22.5645 16.4841 22.7677C16.6872 22.9708 16.9628 23.085 17.2501 23.085Z" fill="white"/>
<path d="M8.58333 23.085C8.87065 23.085 9.1462 22.9708 9.34936 22.7677C9.55253 22.5645 9.66666 22.2889 9.66666 22.0016V14.4183C9.66666 14.131 9.55253 13.8554 9.34936 13.6523C9.1462 13.4491 8.87065 13.335 8.58333 13.335C8.29601 13.335 8.02046 13.4491 7.8173 13.6523C7.61414 13.8554 7.5 14.131 7.5 14.4183V22.0016C7.5 22.2889 7.61414 22.5645 7.8173 22.7677C8.02046 22.9708 8.29601 23.085 8.58333 23.085Z" fill="white"/>
<path d="M21.5833 23.0846C21.8707 23.0846 22.1462 22.9705 22.3494 22.7673C22.5525 22.5642 22.6667 22.2886 22.6667 22.0013V9.0013C22.6667 8.71398 22.5525 8.43843 22.3494 8.23527C22.1462 8.03211 21.8707 7.91797 21.5833 7.91797C21.296 7.91797 21.0205 8.03211 20.8173 8.23527C20.6141 8.43843 20.5 8.71398 20.5 9.0013V22.0013C20.5 22.2886 20.6141 22.5642 20.8173 22.7673C21.0205 22.9705 21.296 23.0846 21.5833 23.0846Z" fill="white"/>
<path d="M12.9166 23.0846C13.2039 23.0846 13.4795 22.9705 13.6826 22.7673C13.8858 22.5642 13.9999 22.2886 13.9999 22.0013V9.0013C13.9999 8.71398 13.8858 8.43843 13.6826 8.23527C13.4795 8.03211 13.2039 7.91797 12.9166 7.91797C12.6293 7.91797 12.3537 8.03211 12.1506 8.23527C11.9474 8.43843 11.8333 8.71398 11.8333 9.0013V22.0013C11.8333 22.2886 11.9474 22.5642 12.1506 22.7673C12.3537 22.9705 12.6293 23.0846 12.9166 23.0846Z" fill="white"/>
</g>
<defs>
<clipPath id="clip0_6058_668">
<rect width="26" height="26" fill="white" transform="translate(1 1.41797)"/>
</clipPath>
</defs>
</svg>
