<svg width="30" height="30" viewBox="0 0 30 30" fill="none" xmlns="http://www.w3.org/2000/svg">
<circle cx="4.25532" cy="4.25532" r="4.25532" transform="matrix(-1 0 0 1 19.5212 6.25)" stroke="#1E2424" stroke-width="1.875"/>
<path d="M7.81909 21.0764C7.81909 20.1612 8.39447 19.3447 9.25642 19.0369V19.0369C13.1425 17.649 17.3893 17.649 21.2754 19.0369V19.0369C22.1373 19.3447 22.7127 20.1612 22.7127 21.0764V22.4759C22.7127 23.7392 21.5939 24.7095 20.3433 24.5309L19.9264 24.4713C16.8351 24.0297 13.6967 24.0297 10.6054 24.4713L10.1885 24.5309C8.93793 24.7095 7.81909 23.7392 7.81909 22.4759V21.0764Z" stroke="#1E2424" stroke-width="1.875"/>
<path d="M21.6487 14.8764C23.4953 14.8764 24.9922 13.3795 24.9922 11.5329C24.9922 9.68637 23.4953 8.18945 21.6487 8.18945" stroke="#1E2424" stroke-width="1.875" stroke-linecap="round"/>
<path d="M25.3106 22.5035L25.6382 22.5503C26.6208 22.6907 27.4998 21.9282 27.4998 20.9357V19.8361C27.4998 19.117 27.0478 18.4755 26.3705 18.2336C25.6949 17.9923 25.0055 17.8044 24.3083 17.6699" stroke="#1E2424" stroke-width="1.875" stroke-linecap="round"/>
<path d="M8.35128 14.8764C6.50473 14.8764 5.00781 13.3795 5.00781 11.5329C5.00781 9.68637 6.50473 8.18945 8.35128 8.18945" stroke="#1E2424" stroke-width="1.875" stroke-linecap="round"/>
<path d="M4.6894 22.5035L4.36181 22.5503C3.37925 22.6907 2.50016 21.9282 2.50016 20.9357V19.8361C2.50016 19.117 2.95224 18.4755 3.62949 18.2336C4.30505 17.9923 4.99449 17.8044 5.69165 17.6699" stroke="#1E2424" stroke-width="1.875" stroke-linecap="round"/>
</svg>
