<svg width="28" height="29" viewBox="0 0 28 29" fill="none" xmlns="http://www.w3.org/2000/svg">
<g clip-path="url(#clip0_5532_663)">
<path d="M27.5768 12.8268C27.7988 11.4727 27.9391 10.1065 27.9968 8.73559C28.0329 7.92512 27.7551 7.14965 27.235 6.60277C27.0313 6.3835 26.785 6.20812 26.5112 6.08738C26.2374 5.96664 25.9418 5.90307 25.6425 5.90059H24.0462C24.0489 5.52598 24.0462 5.13988 24.0281 4.87137C23.9685 3.80387 23.5507 2.85996 22.8195 2.14027C22.0484 1.3834 20.9837 0.915274 19.6548 0.750117H19.6471C15.8952 0.311159 12.1049 0.311159 8.35306 0.750117H8.3454C7.01704 0.91418 5.95228 1.3834 5.18118 2.14246C4.44946 2.86215 4.03165 3.80879 3.97259 4.87301C3.95454 5.14207 3.95126 5.52926 3.954 5.90277H2.35767C2.0585 5.90534 1.763 5.96893 1.48927 6.08967C1.21553 6.21041 0.969324 6.38575 0.765714 6.60496C0.245089 7.14855 -0.0327234 7.92512 0.0033704 8.73559C0.061124 10.1065 0.201378 11.4727 0.42337 12.8268V12.8377C0.886027 15.4572 2.88923 17.8389 5.08603 18.3775C5.43986 18.4667 5.96103 18.5586 6.57025 18.6439C7.46767 19.9394 8.58384 20.9954 9.6415 21.5527L9.68251 21.5729C9.97454 21.7102 10.2841 21.8464 10.6209 21.9765C10.6248 22.7181 10.627 23.1796 10.6297 23.289C10.6302 23.2987 10.6289 23.3083 10.6259 23.3175C10.1732 23.3598 9.72495 23.4406 9.28603 23.5592C8.04298 23.8993 7.38071 24.6332 7.31728 25.7396L7.314 25.7986L7.31728 25.8577C7.38017 26.964 8.04243 27.6979 9.28603 28.0381C10.1807 28.2968 11.5402 28.4067 13.9722 28.4176H13.9815C16.4129 28.4067 17.7724 28.2968 18.6677 28.0381C19.9107 27.6974 20.5724 26.964 20.6364 25.8577L20.6397 25.7986L20.6364 25.7396C20.5735 24.6332 19.9113 23.8993 18.6677 23.5592C18.2287 23.4408 17.7805 23.36 17.3278 23.3175C17.325 23.3082 17.3238 23.2986 17.324 23.289C17.3273 23.1796 17.3295 22.7252 17.3327 21.9935C17.6855 21.86 18.0131 21.7162 18.3171 21.5724L18.3587 21.5522C19.4158 20.9971 20.532 19.9389 21.4294 18.6433C22.0392 18.5586 22.5603 18.465 22.9142 18.3775C25.1109 17.8389 27.1147 15.4578 27.5752 12.8377L27.5768 12.8268ZM2.47525 12.4839C2.26613 11.2129 2.13354 9.93056 2.07821 8.64371C2.06564 8.3566 2.16681 8.14387 2.26579 8.04215C2.28888 8.01271 2.32064 7.99128 2.35657 7.9809H4.01087C4.01743 8.10941 4.024 8.24066 4.0322 8.37301C4.07376 9.18566 4.16728 10.6775 4.32368 11.5919C4.52548 12.9482 5.01767 15.0071 5.37806 16.219L5.38626 16.2453C5.38626 16.2513 5.39611 16.2748 5.40923 16.3125C4.07157 15.875 2.77767 14.2065 2.47306 12.4839H2.47525ZM17.0708 25.3786C17.4164 25.4089 17.7589 25.4682 18.0945 25.5558L18.1131 25.5613C18.4604 25.6554 18.543 25.7489 18.5435 25.7489C18.5489 25.7654 18.5528 25.7825 18.555 25.7997C18.5527 25.816 18.5494 25.832 18.5452 25.8479C18.5413 25.8522 18.4566 25.9447 18.1131 26.0382L18.0951 26.0431C17.2272 26.2957 15.4389 26.3357 13.9766 26.3422C12.5142 26.3357 10.7259 26.2957 9.8586 26.0431L9.84001 26.0382C9.49274 25.9436 9.41071 25.8506 9.41017 25.8506C9.40383 25.8343 9.39978 25.8172 9.39814 25.7997C9.39985 25.7835 9.40334 25.7676 9.40853 25.7521C9.41235 25.7472 9.49657 25.6548 9.84001 25.5618L9.8586 25.5564C10.1945 25.4686 10.5371 25.4092 10.8829 25.3786C11.9334 25.2693 12.7352 24.327 12.7073 23.2365C12.7073 23.172 12.7034 22.8729 12.7018 22.5256C13.1297 22.5873 13.5613 22.6193 13.9935 22.6213H14.0067C14.4231 22.6189 14.8389 22.5889 15.2513 22.5316C15.2513 22.875 15.2481 23.1709 15.2464 23.2349C15.2185 24.327 16.0197 25.2676 17.0708 25.3786ZM19.7505 17.4232C19.0598 18.4311 18.1645 19.3023 17.4137 19.7043C16.4878 20.1374 15.4334 20.5366 14.0017 20.5464C12.57 20.5366 11.5156 20.1374 10.5903 19.7043C9.83673 19.3023 8.94368 18.4311 8.25353 17.4232C7.8884 16.8552 7.59089 16.2464 7.36704 15.6093C7.02634 14.4608 6.56587 12.5325 6.37939 11.2742L6.37501 11.249C6.27329 10.6589 6.17595 9.57012 6.10868 8.2609V8.2527C6.054 7.3416 6.04196 6.42668 6.04196 6.41738V6.41027C6.02884 5.77262 6.03103 5.26184 6.04853 5.0059V4.99223C6.11415 3.78254 7.02032 3.00816 8.60024 2.81129C12.1892 2.39202 15.8148 2.39202 19.4038 2.81129C20.9837 3.00816 21.8893 3.78254 21.9549 4.99223V5.0059C21.9724 5.2602 21.9746 5.77152 21.9615 6.41027V6.41738C21.9615 6.42668 21.9489 7.33996 21.8948 8.2527V8.2609C21.8275 9.57012 21.7307 10.6595 21.6284 11.249L21.6241 11.2742C21.4381 12.532 20.9771 14.4608 20.637 15.6093C20.5981 15.717 20.2826 16.6199 19.7488 17.426L19.7505 17.4232ZM25.5288 12.4839C25.2242 14.2065 23.9302 15.8745 22.5926 16.312C22.6057 16.2743 22.6139 16.2507 22.6156 16.2447L22.6238 16.2185C22.9842 15.0066 23.4763 12.9476 23.6781 11.5914C23.8351 10.6775 23.9281 9.18512 23.9696 8.37246C23.9778 8.24012 23.9849 8.10887 23.9909 7.98035H25.6442C25.6803 7.99067 25.7122 8.0121 25.7355 8.0416C25.8339 8.14496 25.9351 8.35769 25.9225 8.64316C25.8677 9.93016 25.7357 11.2127 25.5271 12.4839H25.5288Z" fill="white"/>
<path d="M18.339 8.46796C17.8753 8.32213 17.4126 8.17629 16.9511 8.03046L16.4496 7.87132C16.034 7.26976 15.6736 6.74038 15.3487 6.24929C15.2034 6.02364 15.0038 5.83805 14.7682 5.70954C14.5326 5.58102 14.2685 5.51367 14.0001 5.51367C13.7318 5.51367 13.4677 5.58102 13.2321 5.70954C12.9964 5.83805 12.7968 6.02364 12.6515 6.24929C12.3273 6.74148 11.9663 7.27249 11.5507 7.87187L11.0503 8.03046C10.5887 8.17629 10.1246 8.32322 9.65795 8.47124C9.39532 8.55272 9.15658 8.69715 8.96252 8.89197C8.76846 9.0868 8.62496 9.3261 8.54452 9.58906C8.47034 9.83461 8.45732 10.0946 8.5066 10.3463C8.55588 10.598 8.66596 10.8339 8.82725 11.0334C9.19749 11.4927 9.61311 12.009 10.0304 12.5291C10.0337 13.1809 10.049 13.8344 10.0763 14.4737V14.4798C10.0912 14.7459 10.1667 15.005 10.297 15.2375C10.4274 15.47 10.6091 15.6697 10.8283 15.8212C11.1034 16.0144 11.431 16.119 11.7673 16.1209C11.9301 16.1211 12.0919 16.0956 12.2469 16.0455C12.7817 15.8737 13.3559 15.6758 13.9969 15.4439C14.6389 15.6763 15.2137 15.8737 15.7469 16.0455C15.9845 16.1203 16.2364 16.1391 16.4825 16.1002C16.7287 16.0613 16.9624 15.9658 17.1655 15.8212C17.3856 15.6698 17.5681 15.4699 17.699 15.237C17.8299 15.0041 17.9057 14.7443 17.9207 14.4776V14.4726C17.948 13.8334 17.9633 13.1798 17.9666 12.528C18.3844 12.0046 18.799 11.4889 19.1654 11.035C19.3273 10.8353 19.438 10.5991 19.4878 10.3469C19.5375 10.0947 19.5248 9.83415 19.4508 9.58796C19.3707 9.3249 19.2275 9.08538 19.0337 8.8902C18.84 8.69503 18.6015 8.55008 18.339 8.46796ZM16.2565 11.3462C16.0238 11.6385 15.8962 12.0006 15.8945 12.3743C15.8945 12.8834 15.8847 13.3937 15.8683 13.8979C15.4619 13.7606 15.0277 13.608 14.5558 13.4352C14.198 13.3047 13.8056 13.3047 13.4478 13.4352C12.9742 13.608 12.54 13.7606 12.1353 13.8979C12.1189 13.3937 12.1101 12.8829 12.1096 12.3743C12.1075 12.0006 11.9798 11.6385 11.747 11.3462C11.4506 10.9787 11.1564 10.6117 10.8753 10.2617C11.1444 10.1771 11.4127 10.092 11.6803 10.0063L12.3087 9.80671C12.6632 9.69434 12.9708 9.46808 13.1837 9.16304C13.4812 8.73484 13.7519 8.34273 14.004 7.96867C14.2544 8.33999 14.5251 8.73429 14.8243 9.16304C15.0371 9.46808 15.3447 9.69434 15.6993 9.80671L16.3287 10.0069L17.1326 10.2617C16.8439 10.6095 16.5513 10.9759 16.2565 11.3462Z" fill="white"/>
</g>
<defs>
<clipPath id="clip0_5532_663">
<rect width="28" height="28" fill="white" transform="translate(0 0.417969)"/>
</clipPath>
</defs>
</svg>
