<svg width="20" height="20" viewBox="0 0 20 20" fill="none" xmlns="http://www.w3.org/2000/svg">
<g clip-path="url(#clip0_3983_6259)">
<path d="M10 0.357422C4.68317 0.357422 0.357178 4.68342 0.357178 10.0003C0.357178 15.3171 4.68317 19.6431 10 19.6431C15.3169 19.6431 19.6429 15.3171 19.6429 10.0003C19.6429 4.68342 15.3169 0.357422 10 0.357422ZM15.3894 7.46269L9.22667 13.5771C8.86416 13.9396 8.28414 13.9638 7.89746 13.6012L4.63484 10.6286C4.24816 10.2661 4.22399 9.66193 4.56233 9.27525C4.92485 8.88857 5.52904 8.8644 5.91572 9.22692L8.50165 11.5953L14.0119 6.08513C14.3985 5.69845 15.0027 5.69845 15.3894 6.08513C15.7761 6.47182 15.7761 7.076 15.3894 7.46269Z" fill="#59C0A4"/>
</g>
<defs>
<clipPath id="clip0_3983_6259">
<rect width="19.2857" height="19.2857" fill="white" transform="translate(0.357178 0.357422)"/>
</clipPath>
</defs>
</svg>
