<svg width="30" height="30" viewBox="0 0 30 30" fill="none" xmlns="http://www.w3.org/2000/svg">
<path d="M2.89407 17.9551L3.19965 18.8414L2.89407 17.9551ZM27.1059 12.0449L27.4115 12.9312L27.1059 12.0449ZM7.5 4.0625C4.22081 4.0625 1.5625 6.72081 1.5625 10H3.4375C3.4375 7.75634 5.25634 5.9375 7.5 5.9375V4.0625ZM22.5 4.0625H7.5V5.9375H22.5V4.0625ZM28.4375 10C28.4375 6.72081 25.7792 4.0625 22.5 4.0625V5.9375C24.7437 5.9375 26.5625 7.75634 26.5625 10H28.4375ZM28.4375 11.5288V10H26.5625V11.5288H28.4375ZM25.9375 15C25.9375 14.0431 26.5525 13.2274 27.4115 12.9312L26.8003 11.1586C25.2083 11.7075 24.0625 13.2187 24.0625 15H25.9375ZM27.4115 17.0688C26.5525 16.7726 25.9375 15.9569 25.9375 15H24.0625C24.0625 16.7813 25.2083 18.2925 26.8003 18.8414L27.4115 17.0688ZM28.4375 20V18.4712H26.5625V20H28.4375ZM22.5 25.9375C25.7792 25.9375 28.4375 23.2792 28.4375 20H26.5625C26.5625 22.2437 24.7437 24.0625 22.5 24.0625V25.9375ZM7.5 25.9375H22.5V24.0625H7.5V25.9375ZM1.5625 20C1.5625 23.2792 4.22081 25.9375 7.5 25.9375V24.0625C5.25634 24.0625 3.4375 22.2437 3.4375 20H1.5625ZM1.5625 18.4712V20H3.4375V18.4712H1.5625ZM3.19965 18.8414C4.79167 18.2925 5.9375 16.7813 5.9375 15H4.0625C4.0625 15.9569 3.44753 16.7726 2.58848 17.0688L3.19965 18.8414ZM5.9375 15C5.9375 13.2187 4.79167 11.7075 3.19965 11.1586L2.58848 12.9312C3.44753 13.2274 4.0625 14.0431 4.0625 15H5.9375ZM1.5625 10V11.5288H3.4375V10H1.5625ZM3.19965 11.1586C3.28316 11.1874 3.4375 11.2974 3.4375 11.5288H1.5625C1.5625 12.2358 2.05535 12.7474 2.58848 12.9312L3.19965 11.1586ZM3.4375 18.4712C3.4375 18.7026 3.28316 18.8126 3.19965 18.8414L2.58848 17.0688C2.05535 17.2526 1.5625 17.7642 1.5625 18.4712H3.4375ZM26.8003 18.8414C26.7168 18.8126 26.5625 18.7026 26.5625 18.4712H28.4375C28.4375 17.7642 27.9446 17.2526 27.4115 17.0688L26.8003 18.8414ZM26.5625 11.5288C26.5625 11.2974 26.7168 11.1874 26.8003 11.1586L27.4115 12.9312C27.9447 12.7474 28.4375 12.2358 28.4375 11.5288H26.5625Z" fill="#1E2424"/>
<path d="M14.5013 10.6604C14.7513 10.3293 15.2487 10.3293 15.4987 10.6604L16.7368 12.2997C16.8116 12.3987 16.9142 12.4732 17.0314 12.5138L18.9731 13.1847C19.3653 13.3202 19.519 13.7932 19.2813 14.1333L18.1048 15.8174C18.0338 15.9191 17.9946 16.0397 17.9923 16.1637L17.9543 18.2177C17.9466 18.6325 17.5442 18.9249 17.1473 18.804L15.1821 18.2055C15.0634 18.1693 14.9366 18.1693 14.8179 18.2055L12.8527 18.804C12.4558 18.9249 12.0534 18.6325 12.0457 18.2177L12.0077 16.1637C12.0054 16.0397 11.9662 15.9191 11.8952 15.8174L10.7187 14.1333C10.481 13.7932 10.6347 13.3202 11.0269 13.1847L12.9686 12.5138C13.0858 12.4732 13.1884 12.3987 13.2632 12.2997L14.5013 10.6604Z" stroke="#1E2424" stroke-width="1.875"/>
</svg>
