<svg width="22" height="22" viewBox="0 0 22 22" fill="none" xmlns="http://www.w3.org/2000/svg">
<path fill-rule="evenodd" clip-rule="evenodd" d="M18.8826 3.42263C19.1512 3.69121 19.1512 4.12663 18.8826 4.39521L4.42312 18.8538C4.28928 18.9885 4.11328 19.0555 3.93728 19.0555C3.76128 19.0555 3.58528 18.9885 3.45145 18.8538C3.18287 18.5852 3.18287 18.1507 3.45145 17.8821L5.25907 16.0756C3.96307 14.8902 2.8637 13.2923 2.05638 11.4106C1.98121 11.2365 1.98121 11.0403 2.05638 10.8671C2.99229 8.70006 4.31046 6.90615 5.86879 5.68056C8.88722 3.29177 12.8554 3.16498 15.9963 5.33711L17.911 3.42263C18.1795 3.15405 18.614 3.15405 18.8826 3.42263ZM18.5433 7.84188C19.2069 8.7228 19.7899 9.74121 20.2767 10.865C20.3528 11.0392 20.3528 11.2372 20.2767 11.4105C18.3554 15.8627 14.9499 18.5201 11.1669 18.5201C10.3079 18.5201 9.4536 18.3808 8.6286 18.1067C8.26835 17.9866 8.0731 17.597 8.19318 17.2368C8.31327 16.8756 8.70102 16.684 9.0631 16.8014C9.74785 17.0296 10.4555 17.1451 11.1669 17.1451C14.3092 17.1451 17.1811 14.9066 18.8944 11.1382C18.4764 10.2225 17.9896 9.39288 17.4451 8.66871C17.2168 8.3653 17.2774 7.93355 17.5808 7.7053C17.8833 7.47705 18.315 7.53938 18.5433 7.84188ZM6.72038 6.7604C5.40404 7.79623 4.27379 9.30506 3.43963 11.1402C4.16695 12.7466 5.12246 14.1014 6.2323 15.1018L8.19195 13.1424C7.79327 12.5558 7.57874 11.8642 7.57874 11.1399C7.57874 9.15986 9.18841 7.54928 11.1666 7.54928C11.8843 7.54928 12.5864 7.76782 13.1709 8.1628L15.0057 6.32819C12.3906 4.63765 9.20774 4.79187 6.72038 6.7604ZM14.1344 10.9776C14.5084 11.0445 14.7568 11.402 14.6899 11.776C14.4268 13.2363 13.27 14.3949 11.8106 14.6608C11.7694 14.6681 11.7272 14.6718 11.6869 14.6718C11.3615 14.6718 11.0718 14.4389 11.0113 14.1071C10.9435 13.734 11.191 13.3756 11.565 13.3078C12.4633 13.1446 13.1746 12.4314 13.336 11.5322C13.4038 11.1591 13.7613 10.9134 14.1344 10.9776ZM11.1666 8.92428C9.94649 8.92428 8.95374 9.91795 8.95374 11.1399C8.95374 11.4931 9.03691 11.8341 9.19368 12.1404L12.1689 9.16485C11.8625 9.00876 11.518 8.92428 11.1666 8.92428Z" fill="white"/>
</svg>
