<svg width="28" height="29" viewBox="0 0 28 29" fill="none" xmlns="http://www.w3.org/2000/svg">
<g clip-path="url(#clip0_5532_580)">
<g clip-path="url(#clip1_5532_580)">
<path d="M19.2751 12.4492C19.2751 11.8451 18.7855 11.3555 18.1814 11.3555H6.91577C6.31169 11.3555 5.82202 11.8451 5.82202 12.4492C5.82202 13.0533 6.31169 13.543 6.91577 13.543H18.1814C18.7855 13.543 19.2751 13.0533 19.2751 12.4492Z" fill="white"/>
<path d="M6.91577 15.7305C6.31169 15.7305 5.82202 16.2201 5.82202 16.8242C5.82202 17.4283 6.31169 17.918 6.91577 17.918H13.7578C14.3619 17.918 14.8515 17.4283 14.8515 16.8242C14.8515 16.2201 14.3619 15.7305 13.7578 15.7305H6.91577Z" fill="white"/>
<path d="M9.48612 26.2305H5.82812C4.62194 26.2305 3.64062 25.2492 3.64062 24.043V4.79297C3.64062 3.58678 4.62194 2.60547 5.82812 2.60547H19.2752C20.4814 2.60547 21.4627 3.58678 21.4627 4.79297V11.5195C21.4627 12.1236 21.9524 12.6133 22.5564 12.6133C23.1605 12.6133 23.6502 12.1236 23.6502 11.5195V4.79297C23.6502 2.38059 21.6876 0.417969 19.2752 0.417969H5.82812C3.41575 0.417969 1.45312 2.38059 1.45312 4.79297V24.043C1.45312 26.4553 3.41575 28.418 5.82812 28.418H9.48612C10.0902 28.418 10.5799 27.9283 10.5799 27.3242C10.5799 26.7201 10.0902 26.2305 9.48612 26.2305Z" fill="white"/>
<path d="M25.5876 16.2536C24.3082 14.9742 22.2266 14.9742 20.948 16.2527L14.9432 22.2443C14.8157 22.3715 14.7216 22.5283 14.6692 22.7006L13.3615 27.0059C13.2455 27.3876 13.3465 27.8021 13.6251 28.0876C13.8338 28.3015 14.1173 28.4176 14.4081 28.4176C14.5054 28.4176 14.6036 28.4046 14.7 28.3779L19.1146 27.155C19.2963 27.1047 19.4619 27.0083 19.5953 26.8751L25.5876 20.894C26.867 19.6147 26.867 17.5331 25.5876 16.2536ZM18.2535 25.1237L16.0326 25.7389L16.6825 23.5991L20.7343 19.5563L22.2814 21.1034L18.2535 25.1237ZM24.0416 19.3466L23.8297 19.5581L22.2828 18.0113L22.4941 17.8005C22.9205 17.374 23.6144 17.374 24.0408 17.8005C24.4673 18.2269 24.4673 18.9208 24.0416 19.3466Z" fill="white"/>
<path d="M18.1814 6.98047H6.91577C6.31169 6.98047 5.82202 7.47014 5.82202 8.07422C5.82202 8.6783 6.31169 9.16797 6.91577 9.16797H18.1814C18.7855 9.16797 19.2751 8.6783 19.2751 8.07422C19.2751 7.47014 18.7855 6.98047 18.1814 6.98047Z" fill="white"/>
</g>
</g>
<defs>
<clipPath id="clip0_5532_580">
<rect width="28" height="28" fill="white" transform="translate(0 0.417969)"/>
</clipPath>
<clipPath id="clip1_5532_580">
<rect width="28" height="28" fill="white" transform="translate(0 0.417969)"/>
</clipPath>
</defs>
</svg>
