<svg width="28" height="29" viewBox="0 0 28 29" fill="none" xmlns="http://www.w3.org/2000/svg">
<g clip-path="url(#clip0_5532_629)">
<path d="M27.3824 11.5746C27.0221 11.2143 26.5331 10.9827 25.9669 10.9827H19.1728V2.61868C19.1728 2.07824 18.9412 1.56353 18.5809 1.20324C18.2206 0.842946 17.7316 0.611328 17.1654 0.611328H10.7574C10.2169 0.611328 9.72794 0.842946 9.36765 1.20324C9.00735 1.56353 8.77573 2.0525 8.77573 2.59295V6.89074H1.98162C1.44118 6.89074 0.952206 7.12236 0.591912 7.48265C0.231618 7.84295 0 8.33192 0 8.87236V26.2179C0 26.7584 0.231618 27.2731 0.591912 27.6334C0.952206 27.9937 1.44118 28.2253 2.00735 28.2253H9.625H18.4007H26.0184C26.5588 28.2253 27.0478 27.9937 27.4081 27.6334C27.7684 27.2731 28 26.7841 28 26.2437V12.99C27.9743 12.4238 27.7426 11.9349 27.3824 11.5746ZM8.75 26.604H1.98162C1.87868 26.5782 1.80147 26.5525 1.72426 26.4753C1.67279 26.4238 1.62132 26.3209 1.62132 26.2437V8.89809C1.62132 8.79515 1.64706 8.71795 1.72426 8.66647C1.77574 8.615 1.87868 8.56353 1.95588 8.56353H8.75V26.604ZM17.5257 11.8062V26.5782H10.3971V7.74V2.61868C10.3971 2.51574 10.4228 2.43853 10.5 2.38706C10.5515 2.33559 10.6544 2.28412 10.7316 2.28412H17.1912C17.2941 2.28412 17.3713 2.33559 17.4228 2.38706C17.4743 2.43853 17.5257 2.54148 17.5257 2.61868V11.8062ZM26.3015 26.2437C26.3015 26.3466 26.2757 26.4238 26.1985 26.4753C26.1471 26.5268 26.0441 26.5782 25.9669 26.5782H19.1728V12.6297H25.9669C26.0699 12.6297 26.1471 12.6812 26.1985 12.7326C26.25 12.7841 26.3015 12.8871 26.3015 12.9643V26.2437Z" fill="white"/>
<path d="M14.7978 7.40533C14.7205 7.35386 14.5919 7.32812 14.4375 7.32812C14.3345 7.32812 14.1801 7.3796 14 7.48254C13.8198 7.58548 13.4595 7.8171 12.9705 8.17739C12.8676 8.2546 12.7647 8.3318 12.7132 8.40901C12.6617 8.48621 12.636 8.58915 12.636 8.6921C12.636 8.82077 12.6875 8.94945 12.7904 9.07813C12.8933 9.2068 13.022 9.28401 13.1507 9.28401C13.2794 9.28401 13.3823 9.25827 13.4853 9.2068C13.6397 9.1296 13.7683 9.02665 13.8713 8.92371C13.8713 9.02665 13.8713 9.18107 13.8713 9.38695C13.8713 9.59283 13.8713 9.74724 13.8713 9.87592C13.8713 10.2105 13.8713 10.5965 13.8455 11.0597C13.8455 11.523 13.8198 11.8061 13.8198 11.9347C13.8198 12.1149 13.8713 12.2436 14 12.3465C14.1029 12.4494 14.2573 12.5009 14.4375 12.5009C14.6176 12.5009 14.7463 12.4494 14.875 12.3722C15.0036 12.295 15.0551 12.1664 15.0551 12.0119C15.0551 11.7031 15.0551 11.2399 15.0551 10.5965C15.0551 9.97886 15.0551 9.48989 15.0551 9.18107V7.84283C15.0551 7.63695 14.9779 7.50827 14.7978 7.40533Z" fill="white"/>
<path d="M4.81243 16.207C4.68375 16.3357 4.45213 16.5416 4.16905 16.7989C3.86022 17.0563 3.70581 17.2107 3.65434 17.2622C3.49993 17.3909 3.39699 17.5195 3.34552 17.6482C3.29405 17.7769 3.26831 17.9056 3.26831 18.06C3.26831 18.2401 3.31978 18.3945 3.44846 18.5232C3.5514 18.6519 3.70581 18.7034 3.88596 18.7034C4.60655 18.7034 5.14699 18.7291 5.55875 18.7291H6.38228C6.56243 18.7291 6.6911 18.6776 6.79405 18.5747C6.89699 18.4717 6.94846 18.3173 6.94846 18.1114C6.94846 17.957 6.89699 17.8284 6.81978 17.6997C6.74258 17.6225 6.63963 17.571 6.48522 17.571C6.43375 17.571 6.38228 17.571 6.30508 17.571C6.22787 17.571 6.1764 17.571 6.12493 17.571H6.04772C5.58449 17.5967 5.24993 17.5967 5.01831 17.571L5.50728 17.1592C5.7389 16.9534 5.89331 16.8247 5.97052 16.7732C6.04772 16.696 6.15066 16.5931 6.33081 16.4386C6.48522 16.2842 6.58816 16.1556 6.63963 16.0526C6.6911 15.9497 6.74258 15.821 6.79405 15.6666C6.84552 15.5122 6.87125 15.3578 6.87125 15.2034C6.87125 14.7144 6.6911 14.3026 6.30508 14.0195C5.91905 13.7364 5.48155 13.582 4.94111 13.582C4.52934 13.582 4.14331 13.7107 3.78302 13.9938C3.47419 14.2254 3.31978 14.457 3.31978 14.6886C3.31978 14.8431 3.37125 14.9717 3.47419 15.1004C3.57713 15.2291 3.70581 15.2806 3.86022 15.2806C4.0661 15.2806 4.24625 15.2034 4.37493 15.0747C4.58081 14.8688 4.78669 14.7659 4.96684 14.7659C5.14699 14.7659 5.27566 14.8173 5.3786 14.8945C5.48155 14.9717 5.55875 15.1004 5.55875 15.2291C5.55875 15.3063 5.53302 15.4092 5.45581 15.5122C5.3786 15.6151 5.17272 15.8467 4.81243 16.207Z" fill="white"/>
<path d="M23.2133 20.5565L24.1655 19.63C24.3199 19.5013 24.3971 19.3212 24.3971 19.1153C24.3971 18.9609 24.3456 18.8322 24.2684 18.755C24.1912 18.6521 24.0626 18.6006 23.8824 18.6006C23.7023 18.6006 23.4706 18.6006 23.1361 18.6006C22.8015 18.6006 22.5442 18.6006 22.3898 18.6006C22.2868 18.6006 22.1067 18.6006 21.9008 18.6006C21.6949 18.6006 21.5662 18.6006 21.5405 18.6006C21.3346 18.6006 21.2059 18.6521 21.1287 18.755C21.0515 18.8579 21.0001 19.0123 21.0001 19.1668C21.0001 19.5271 21.2059 19.7329 21.592 19.7329C21.8493 19.7329 22.2354 19.7329 22.7243 19.7072C22.6471 19.7844 22.5699 19.8616 22.467 19.9388C22.3898 20.016 22.2868 20.119 22.1581 20.1962C22.0552 20.2991 21.9523 20.3763 21.9008 20.4278C21.7464 20.5565 21.6692 20.7366 21.6692 20.9168C21.6692 21.0712 21.7206 21.1999 21.7979 21.3285C21.8751 21.4315 22.0037 21.5087 22.1581 21.5087C22.2354 21.5087 22.3126 21.5087 22.4155 21.5087C22.9559 21.5087 23.239 21.6888 23.239 22.0491C23.239 22.255 23.1618 22.3837 23.0331 22.4866C22.9045 22.5896 22.7243 22.641 22.5184 22.641C22.364 22.641 22.1839 22.5896 21.9523 22.4609C21.7464 22.3579 21.592 22.3065 21.4376 22.3065C21.3089 22.3065 21.1802 22.3579 21.0773 22.4866C20.9743 22.6153 20.9229 22.744 20.9229 22.9241C20.9229 23.1557 21.0515 23.3359 21.3089 23.4903C21.6692 23.6962 22.0809 23.7734 22.5184 23.7734C23.0846 23.7734 23.5479 23.619 23.9081 23.3101C24.2684 23.0013 24.4229 22.5638 24.4229 21.9976C24.4229 21.6116 24.2942 21.3028 24.0368 21.0454C23.8567 20.7624 23.5479 20.6079 23.2133 20.5565Z" fill="white"/>
</g>
<defs>
<clipPath id="clip0_5532_629">
<rect width="28" height="28" fill="white" transform="translate(0 0.417969)"/>
</clipPath>
</defs>
</svg>
