<svg width="22" height="22" viewBox="0 0 22 22" fill="none" xmlns="http://www.w3.org/2000/svg">
<path fill-rule="evenodd" clip-rule="evenodd" d="M11.1692 3.66724C14.9605 3.66999 18.365 6.3274 20.2772 10.7769C20.3524 10.9502 20.3524 11.1463 20.2772 11.3196C18.3659 15.77 14.9605 18.4274 11.1692 18.4302H11.1637C7.37235 18.4274 3.96785 15.77 2.05569 11.3196C1.98144 11.1463 1.98144 10.9502 2.05569 10.7769C3.96785 6.3274 7.37327 3.66999 11.1637 3.66724H11.1692ZM11.1664 5.04224C8.01677 5.04315 5.14394 7.28257 3.43894 11.0482C5.14394 14.8148 8.01585 17.0542 11.1664 17.0552C14.317 17.0542 17.1889 14.8148 18.8939 11.0482C17.1889 7.28257 14.317 5.04315 11.1664 5.04224ZM11.1662 7.46297C13.1434 7.46297 14.7522 9.07172 14.7522 11.049C14.7522 13.0253 13.1434 14.6331 11.1662 14.6331C9.18891 14.6331 7.58108 13.0253 7.58108 11.049C7.58108 9.07172 9.18891 7.46297 11.1662 7.46297ZM11.1662 8.83797C9.947 8.83797 8.95608 9.8298 8.95608 11.049C8.95608 12.2672 9.947 13.2581 11.1662 13.2581C12.3853 13.2581 13.3772 12.2672 13.3772 11.049C13.3772 9.8298 12.3853 8.83797 11.1662 8.83797Z" fill="white"/>
</svg>
