<svg width="6" height="8" viewBox="0 0 6 8" fill="none" xmlns="http://www.w3.org/2000/svg">
<path d="M5.34122 4.48017C5.44276 4.38646 5.49987 4.25932 5.5 4.12671V3.87329C5.49834 3.74097 5.44146 3.61435 5.34122 3.51983L1.63158 0.098634C1.56383 0.0355077 1.47159 0 1.37537 0C1.27915 0 1.18692 0.0355077 1.11916 0.098634L0.606741 0.572133C0.538854 0.633597 0.500597 0.717724 0.500597 0.805548C0.500597 0.893372 0.538854 0.977499 0.606741 1.03896L3.81839 4L0.606741 6.96104C0.538426 7.02365 0.5 7.10888 0.5 7.19779C0.5 7.2867 0.538426 7.37193 0.606741 7.43454L1.11916 7.90137C1.18692 7.96449 1.27915 8 1.37537 8C1.47159 8 1.56383 7.96449 1.63158 7.90137L5.34122 4.48017Z" fill="#666666"/>
</svg>
