<svg width="16" height="16" viewBox="0 0 16 16" fill="none" xmlns="http://www.w3.org/2000/svg">
<g clip-path="url(#clip0_3141_16302)">
<path d="M8.00017 0C3.58901 0 0.000244141 3.58869 0.000244141 7.99977C0.000244141 12.4112 3.58901 16 8.00017 16C12.4113 16 15.9999 12.4111 15.9999 7.99977C15.9999 3.58869 12.4113 0 8.00017 0ZM8.00017 14.8532C4.22135 14.8532 1.14703 11.7787 1.14703 7.99977C1.14703 4.22102 4.22135 1.14679 8.00017 1.14679C11.7789 1.14679 14.8532 4.22102 14.8532 7.99977C14.8532 11.7787 11.7789 14.8532 8.00017 14.8532Z" fill="#999999"/>
<path d="M12.1135 7.86549H8.35406V3.75601C8.35406 3.43935 8.09741 3.18262 7.78067 3.18262C7.464 3.18262 7.20728 3.43935 7.20728 3.75601V8.43889C7.20728 8.75555 7.464 9.01228 7.78067 9.01228H12.1135C12.4303 9.01228 12.6869 8.75555 12.6869 8.43889C12.6869 8.12222 12.4302 7.86549 12.1135 7.86549Z" fill="#999999"/>
</g>
<defs>
<clipPath id="clip0_3141_16302">
<rect width="16" height="16" fill="white"/>
</clipPath>
</defs>
</svg>
