<svg width="6" height="8" viewBox="0 0 6 8" fill="none" xmlns="http://www.w3.org/2000/svg">
                                        <path d="M0.658778 4.48017C0.557238 4.38646 0.500126 4.25932 0.5 4.12671V3.87329C0.501663 3.74097 0.558543 3.61435 0.658778 3.51983L4.36842 0.098634C4.43617 0.0355077 4.52841 0 4.62463 0C4.72085 0 4.81308 0.0355077 4.88084 0.098634L5.39326 0.572133C5.46115 0.633597 5.4994 0.717724 5.4994 0.805548C5.4994 0.893372 5.46115 0.977499 5.39326 1.03896L2.18161 4L5.39326 6.96104C5.46157 7.02365 5.5 7.10888 5.5 7.19779C5.5 7.2867 5.46157 7.37193 5.39326 7.43454L4.88084 7.90137C4.81308 7.96449 4.72085 8 4.62463 8C4.52841 8 4.43617 7.96449 4.36842 7.90137L0.658778 4.48017Z" fill="#666666"/>
                                        </svg>