<svg width="28" height="29" viewBox="0 0 28 29" fill="none" xmlns="http://www.w3.org/2000/svg">
<path d="M20.9999 8.58464H21.8749C21.8749 8.35257 21.7828 8.13001 21.6186 7.96592C21.4546 7.80183 21.232 7.70964 20.9999 7.70964V8.58464ZM6.99992 8.58464V7.70964C6.76786 7.70964 6.54529 7.80183 6.3812 7.96592C6.21711 8.13001 6.12492 8.35257 6.12492 8.58464H6.99992ZM20.1249 8.58464V13.2513H21.8749V8.58464H20.1249ZM20.1249 13.2513V22.5846H21.8749V13.2513H20.1249ZM18.6666 24.043H9.33325V25.793H18.6666V24.043ZM7.87492 22.5846V8.58464H6.12492V22.5846H7.87492ZM6.99992 9.45964H20.9999V7.70964H6.99992V9.45964ZM6.99992 4.79297H20.9999V3.04297H6.99992V4.79297ZM3.20825 8.58464C3.20825 6.49056 4.90583 4.79297 6.99992 4.79297V3.04297C3.93934 3.04297 1.45825 5.52406 1.45825 8.58464H3.20825ZM6.99992 12.3763C4.90583 12.3763 3.20825 10.6787 3.20825 8.58464H1.45825C1.45825 11.6452 3.93934 14.1263 6.99992 14.1263V12.3763ZM24.7916 8.58464C24.7916 10.6787 23.094 12.3763 20.9999 12.3763V14.1263C24.0606 14.1263 26.5416 11.6452 26.5416 8.58464H24.7916ZM26.5416 8.58464C26.5416 5.52406 24.0606 3.04297 20.9999 3.04297V4.79297C23.094 4.79297 24.7916 6.49056 24.7916 8.58464H26.5416ZM20.1249 22.5846C20.1249 23.3901 19.4721 24.043 18.6666 24.043V25.793C20.4385 25.793 21.8749 24.3566 21.8749 22.5846H20.1249ZM9.33325 24.043C8.52783 24.043 7.87492 23.3901 7.87492 22.5846H6.12492C6.12492 24.3566 7.56134 25.793 9.33325 25.793V24.043Z" fill="white"/>
<path d="M16.9519 18.5363C17.2936 18.1946 17.2936 17.6407 16.9519 17.299C16.6101 16.9572 16.0562 16.9572 15.7145 17.299L16.9519 18.5363ZM12.2852 17.299C11.9435 16.9572 11.3895 16.9572 11.0478 17.299C10.7061 17.6407 10.7061 18.1946 11.0478 18.5363L12.2852 17.299ZM14.8748 13.251C14.8748 12.7677 14.4831 12.376 13.9998 12.376C13.5166 12.376 13.1248 12.7677 13.1248 13.251H14.8748ZM13.1248 19.0843C13.1248 19.5675 13.5166 19.9593 13.9998 19.9593C14.4831 19.9593 14.8748 19.5675 14.8748 19.0843H13.1248ZM15.7145 17.299L14.2061 18.8073L15.4435 20.0447L16.9519 18.5363L15.7145 17.299ZM13.7936 18.8073L12.2852 17.299L11.0478 18.5363L12.5562 20.0447L13.7936 18.8073ZM14.2061 18.8073C14.0921 18.9212 13.9076 18.9212 13.7936 18.8073L12.5562 20.0447C13.3535 20.842 14.6462 20.842 15.4435 20.0447L14.2061 18.8073ZM13.1248 13.251V19.0843H14.8748V13.251H13.1248Z" fill="white"/>
</svg>
