<svg width="18" height="18" viewBox="0 0 18 18" fill="none" xmlns="http://www.w3.org/2000/svg">
<path d="M1.59597 11.7996C1.2538 9.57544 0.911629 7.35137 0.56946 5.12724C0.493579 4.63421 1.05456 4.29795 1.4536 4.59725C2.51965 5.39679 3.58564 6.19627 4.65169 6.99581C5.00269 7.25906 5.50275 7.17339 5.74609 6.80833L8.40857 2.81458C8.68993 2.39254 9.31003 2.39254 9.5914 2.81458L12.2539 6.80833C12.4972 7.17339 12.9973 7.259 13.3483 6.99581C14.4143 6.19627 15.4803 5.39679 16.5464 4.59725C16.9454 4.29795 17.5064 4.63421 17.4306 5.12724C17.0884 7.35137 16.7462 9.57544 16.4041 11.7996H1.59597Z" fill="#FFB743"/>
<path d="M15.632 15.5012H2.36798C1.9416 15.5012 1.59595 15.1555 1.59595 14.7291V13.0332H16.404V14.7291C16.404 15.1555 16.0583 15.5012 15.632 15.5012Z" fill="#FFB743"/>
</svg>
