<svg width="28" height="29" viewBox="0 0 28 29" fill="none" xmlns="http://www.w3.org/2000/svg">
<g clip-path="url(#clip0_5532_682)">
<path d="M6.41724 6.54395C6.90049 6.54395 7.29224 6.15219 7.29224 5.66895C7.29224 5.1857 6.90049 4.79395 6.41724 4.79395C5.93399 4.79395 5.54224 5.1857 5.54224 5.66895C5.54224 6.15219 5.93399 6.54395 6.41724 6.54395Z" fill="white"/>
<path d="M9.3335 6.54395C9.81675 6.54395 10.2085 6.15219 10.2085 5.66895C10.2085 5.1857 9.81675 4.79395 9.3335 4.79395C8.85025 4.79395 8.4585 5.1857 8.4585 5.66895C8.4585 6.15219 8.85025 6.54395 9.3335 6.54395Z" fill="white"/>
<path d="M12.2498 6.54395C12.733 6.54395 13.1248 6.15219 13.1248 5.66895C13.1248 5.1857 12.733 4.79395 12.2498 4.79395C11.7665 4.79395 11.3748 5.1857 11.3748 5.66895C11.3748 6.15219 11.7665 6.54395 12.2498 6.54395Z" fill="white"/>
<path fill-rule="evenodd" clip-rule="evenodd" d="M26.5418 14.4176C26.5418 14.9006 26.1498 15.2926 25.6668 15.2926C25.1838 15.2926 24.7918 14.9006 24.7918 14.4176V5.66764C24.7918 4.53948 23.8783 3.62598 22.7502 3.62598H5.25016C4.122 3.62598 3.2085 4.53948 3.2085 5.66764V23.1676C3.2085 24.2958 4.122 25.2093 5.25016 25.2093H14.0002C14.4832 25.2093 14.8752 25.6013 14.8752 26.0843C14.8752 26.5673 14.4832 26.9593 14.0002 26.9593H5.25016C3.156 26.9593 1.4585 25.2618 1.4585 23.1676V5.66764C1.4585 3.57348 3.156 1.87598 5.25016 1.87598H22.7502C24.8443 1.87598 26.5418 3.57348 26.5418 5.66764V14.4176Z" fill="white"/>
<path fill-rule="evenodd" clip-rule="evenodd" d="M25.6668 7.70801C26.1498 7.70801 26.5418 8.10001 26.5418 8.58301C26.5418 9.06601 26.1498 9.45801 25.6668 9.45801H2.3335C1.8505 9.45801 1.4585 9.06601 1.4585 8.58301C1.4585 8.10001 1.8505 7.70801 2.3335 7.70801H25.6668Z" fill="white"/>
<path fill-rule="evenodd" clip-rule="evenodd" d="M21.5839 12.376C22.0669 12.376 22.4589 12.768 22.4589 13.251C22.4589 13.734 22.0669 14.126 21.5839 14.126H6.41724C5.93424 14.126 5.54224 13.734 5.54224 13.251C5.54224 12.768 5.93424 12.376 6.41724 12.376H21.5839Z" fill="white"/>
<path fill-rule="evenodd" clip-rule="evenodd" d="M12.2506 17.0439C12.7336 17.0439 13.1256 17.4359 13.1256 17.9189C13.1256 18.4019 12.7336 18.7939 12.2506 18.7939H6.41724C5.93424 18.7939 5.54224 18.4019 5.54224 17.9189C5.54224 17.4359 5.93424 17.0439 6.41724 17.0439H12.2506Z" fill="white"/>
<path fill-rule="evenodd" clip-rule="evenodd" d="M21.0002 15.876C24.0592 15.876 26.5418 18.3586 26.5418 21.4176C26.5418 24.4766 24.0592 26.9593 21.0002 26.9593C17.9412 26.9593 15.4585 24.4766 15.4585 21.4176C15.4585 18.3586 17.9412 15.876 21.0002 15.876ZM21.0002 17.626C18.9072 17.626 17.2085 19.3246 17.2085 21.4176C17.2085 23.5106 18.9072 25.2093 21.0002 25.2093C23.0932 25.2093 24.7918 23.5106 24.7918 21.4176C24.7918 19.3246 23.0932 17.626 21.0002 17.626Z" fill="white"/>
<path fill-rule="evenodd" clip-rule="evenodd" d="M18.2813 22.0346C17.9394 21.694 17.9394 21.1386 18.2813 20.798C18.6219 20.4561 19.1773 20.4561 19.5179 20.798L20.2996 21.5785L22.4813 19.398C22.8219 19.0561 23.3773 19.0561 23.7179 19.398C24.0598 19.7386 24.0598 20.294 23.7179 20.6346L20.9179 23.4346C20.5761 23.7765 20.0231 23.7765 19.6813 23.4346L18.2813 22.0346Z" fill="white"/>
</g>
<defs>
<clipPath id="clip0_5532_682">
<rect width="28" height="28" fill="white" transform="translate(0 0.417969)"/>
</clipPath>
</defs>
</svg>
