<svg width="28" height="29" viewBox="0 0 28 29" fill="none" xmlns="http://www.w3.org/2000/svg">
<g clip-path="url(#clip0_5532_651)">
<path d="M20.2415 4.57733C19.4968 4.0555 18.546 3.93108 17.6908 4.24028L10.1234 6.9924H3.78628C2.25052 6.9924 1.00073 8.24218 1.00073 9.77795V13.492C1.00073 14.9516 2.13259 16.1392 3.56251 16.2553L2.44179 21.2981C2.26073 22.1142 2.45665 22.9564 2.9794 23.6082C3.50123 24.261 4.28118 24.6342 5.11777 24.6342C6.41306 24.6342 7.51335 23.7512 7.79469 22.4875L9.17446 16.2776H10.1234L17.6908 19.0297C18 19.142 18.3222 19.1968 18.6416 19.1968C19.2062 19.1968 19.7661 19.025 20.2415 18.6926C20.9852 18.1717 21.4281 17.3194 21.4281 16.4113V6.8587C21.4281 5.95061 20.9843 5.09823 20.2415 4.57733ZM3.78628 14.4215C3.27374 14.4215 2.85777 14.0046 2.85777 13.4929V9.77888C2.85777 9.26727 3.27374 8.85036 3.78628 8.85036H9.35738V14.4215H3.78628ZM5.98037 22.0854C5.89123 22.4866 5.52911 22.7781 5.11685 22.7781C4.84758 22.7781 4.59502 22.6574 4.42696 22.4476C4.2589 22.2377 4.19576 21.9657 4.25425 21.702L5.45854 16.2785H7.27008L5.98037 22.0854ZM19.5711 16.4122C19.5711 16.7195 19.4271 16.9962 19.1755 17.1727C18.923 17.3491 18.6147 17.3909 18.325 17.285L11.2144 14.6991V8.57088L18.325 5.98496C18.6147 5.88004 18.923 5.92182 19.1755 6.09731C19.4271 6.27373 19.5711 6.55043 19.5711 6.85777V16.4122Z" fill="white"/>
<path d="M24.2147 8.85079C23.8739 8.85079 23.5461 8.66323 23.3827 8.33732C23.1534 7.87863 23.3391 7.32059 23.7977 7.09125L25.6548 6.16273C26.1135 5.93339 26.6706 6.11909 26.9009 6.57778C27.1302 7.03647 26.9445 7.5945 26.4858 7.82385L24.6288 8.75236C24.4951 8.81922 24.3539 8.84986 24.2147 8.84986V8.85079ZM26.9993 11.6363C26.9993 11.1238 26.5842 10.7078 26.0708 10.7078H24.2137C23.7003 10.7078 23.2852 11.1238 23.2852 11.6363C23.2852 12.1489 23.7003 12.5649 24.2137 12.5649H26.0708C26.5842 12.5649 26.9993 12.1489 26.9993 11.6363ZM26.9018 16.694C27.1311 16.2353 26.9454 15.6772 26.4867 15.4479L24.6297 14.5194C24.171 14.291 23.613 14.4757 23.3836 14.9344C23.1543 15.3931 23.34 15.9512 23.7987 16.1805L25.6557 17.109C25.7894 17.1759 25.9306 17.2065 26.0698 17.2065C26.4106 17.2065 26.7384 17.0189 26.9018 16.693V16.694Z" fill="white"/>
</g>
<defs>
<clipPath id="clip0_5532_651">
<rect width="28" height="28" fill="white" transform="translate(0 0.417969)"/>
</clipPath>
</defs>
</svg>
