<svg width="11" height="11" viewBox="0 0 11 11" fill="none" xmlns="http://www.w3.org/2000/svg">
<path d="M5.5 0C2.46262 0 0 2.46262 0 5.5C0 8.53738 2.46262 11 5.5 11C8.53738 11 11 8.53738 11 5.5C11 2.46262 8.53738 0 5.5 0ZM5.5 10.3125C2.84625 10.3125 0.6875 8.15375 0.6875 5.5C0.6875 2.84625 2.84625 0.6875 5.5 0.6875C8.15375 0.6875 10.3125 2.84625 10.3125 5.5C10.3125 8.15375 8.15375 10.3125 5.5 10.3125ZM5.5 2.0625C5.31766 2.0625 5.1428 2.13493 5.01386 2.26386C4.88493 2.3928 4.8125 2.56766 4.8125 2.75V6.1875C4.8125 6.36984 4.88493 6.5447 5.01386 6.67364C5.1428 6.80257 5.31766 6.875 5.5 6.875C5.68234 6.875 5.8572 6.80257 5.98614 6.67364C6.11507 6.5447 6.1875 6.36984 6.1875 6.1875V2.75C6.1875 2.56766 6.11507 2.3928 5.98614 2.26386C5.8572 2.13493 5.68234 2.0625 5.5 2.0625ZM4.8125 8.239C4.8125 8.42134 4.88493 8.5962 5.01386 8.72514C5.1428 8.85407 5.31766 8.9265 5.5 8.9265C5.68234 8.9265 5.8572 8.85407 5.98614 8.72514C6.11507 8.5962 6.1875 8.42134 6.1875 8.239C6.1875 8.14872 6.16972 8.05932 6.13517 7.9759C6.10062 7.89249 6.04998 7.8167 5.98614 7.75286C5.9223 7.68902 5.84651 7.63838 5.76309 7.60383C5.67968 7.56928 5.59028 7.5515 5.5 7.5515C5.40972 7.5515 5.32032 7.56928 5.23691 7.60383C5.15349 7.63838 5.0777 7.68902 5.01386 7.75286C4.95002 7.8167 4.89938 7.89249 4.86483 7.9759C4.83028 8.05932 4.8125 8.14872 4.8125 8.239Z" fill="#666666"/>
</svg>
