<svg width="28" height="29" viewBox="0 0 28 29" fill="none" xmlns="http://www.w3.org/2000/svg">
<g clip-path="url(#clip0_5532_593)">
<path d="M7.1742 1.49316C5.41261 1.49316 3.97919 2.91351 3.97919 4.65273L3.86304 21.0345L5.60576 21.047L5.72197 4.65913C5.72197 3.87431 6.37347 3.23589 7.17426 3.23589H24.6888V1.49316H7.1742Z" fill="white"/>
<path d="M24.6888 1.49316C22.863 1.49316 21.3776 2.97853 21.3776 4.80438V23.1903C21.3776 24.5194 20.2959 25.6011 18.9668 25.6011C17.6376 25.6011 16.556 24.5194 16.556 23.1903V21.0699C16.556 20.5886 16.1659 20.1985 15.6846 20.1985H0.871391C0.390086 20.1985 0 20.5886 0 21.0699V23.1903C0 25.4805 1.86326 27.3438 4.15352 27.3438V25.6011C2.82412 25.6011 1.74273 24.5194 1.74273 23.1903V21.9413H14.8133V23.1902C14.8133 25.4805 16.6765 27.3437 18.9668 27.3437C21.257 27.3437 23.1203 25.4805 23.1203 23.1902V9.56783H27.1286C27.6099 9.56783 28 9.17774 28 8.69644V4.80433C28 2.97853 26.5146 1.49316 24.6888 1.49316ZM26.2573 7.8251H23.1203V4.80433C23.1203 3.93934 23.8241 3.23589 24.6888 3.23589C25.5534 3.23589 26.2572 3.93939 26.2572 4.80433V7.8251H26.2573Z" fill="white"/>
<path d="M18.7632 25.6006H3.97925V27.3433H18.7632V25.6006Z" fill="white"/>
<path d="M12.9543 6.34375H8.4522C7.9709 6.34375 7.58081 6.73384 7.58081 7.21514C7.58081 7.69645 7.9709 8.08653 8.4522 8.08653H12.9543C13.4356 8.08653 13.8257 7.69645 13.8257 7.21514C13.8257 6.73384 13.4355 6.34375 12.9543 6.34375Z" fill="white"/>
<path d="M18.1825 9.8291H8.4522C7.9709 9.8291 7.58081 10.2192 7.58081 10.7005C7.58081 11.1818 7.9709 11.5719 8.4522 11.5719H18.1825C18.6638 11.5719 19.0539 11.1818 19.0539 10.7005C19.0539 10.2192 18.6638 9.8291 18.1825 9.8291Z" fill="white"/>
<path d="M18.1825 13.3145H8.4522C7.9709 13.3145 7.58081 13.7045 7.58081 14.1858C7.58081 14.6671 7.9709 15.0572 8.4522 15.0572H18.1825C18.6638 15.0572 19.0539 14.6674 19.0539 14.1858C19.0539 13.7045 18.6638 13.3145 18.1825 13.3145Z" fill="white"/>
<path d="M18.1825 16.7998H8.4522C7.9709 16.7998 7.58081 17.1899 7.58081 17.6712C7.58081 18.1525 7.9709 18.5426 8.4522 18.5426H18.1825C18.6638 18.5426 19.0539 18.1525 19.0539 17.6712C19.0539 17.1899 18.6638 16.7998 18.1825 16.7998Z" fill="white"/>
</g>
<defs>
<clipPath id="clip0_5532_593">
<rect width="28" height="28" fill="white" transform="translate(0 0.417969)"/>
</clipPath>
</defs>
</svg>
