<svg width="28" height="29" viewBox="0 0 28 29" fill="none" xmlns="http://www.w3.org/2000/svg">
<g clip-path="url(#clip0_5532_669)">
<path d="M0.875 8.29297C0.875 4.91022 3.61725 2.16797 7 2.16797H21C24.3827 2.16797 27.125 4.91022 27.125 8.29297V17.043C27.125 20.4257 24.3827 23.168 21 23.168H17.9375C17.4542 23.168 17.0625 22.7762 17.0625 22.293C17.0625 21.8097 17.4542 21.418 17.9375 21.418H21C23.4162 21.418 25.375 19.4592 25.375 17.043V8.29297C25.375 5.87674 23.4162 3.91797 21 3.91797H7C4.58378 3.91797 2.625 5.87674 2.625 8.29297V17.043C2.625 19.4592 4.58378 21.418 7 21.418H10.0625C10.5458 21.418 10.9375 21.8097 10.9375 22.293C10.9375 22.7762 10.5458 23.168 10.0625 23.168H7C3.61725 23.168 0.875 20.4257 0.875 17.043V8.29297Z" fill="white"/>
<path d="M13.5625 21.418C13.0792 21.418 12.6875 21.8097 12.6875 22.293C12.6875 22.7762 13.0792 23.168 13.5625 23.168H14.4375C14.9208 23.168 15.3125 22.7762 15.3125 22.293C15.3125 21.8097 14.9208 21.418 14.4375 21.418H13.5625Z" fill="white"/>
<path d="M11.8125 8.73047C11.8125 8.24721 12.2042 7.85547 12.6875 7.85547H22.3125C22.7958 7.85547 23.1875 8.24721 23.1875 8.73047C23.1875 9.21373 22.7958 9.60547 22.3125 9.60547H12.6875C12.2042 9.60547 11.8125 9.21373 11.8125 8.73047Z" fill="white"/>
<path d="M12.6875 11.3555C12.2042 11.3555 11.8125 11.7472 11.8125 12.2305C11.8125 12.7137 12.2042 13.1055 12.6875 13.1055H22.3125C22.7958 13.1055 23.1875 12.7137 23.1875 12.2305C23.1875 11.7472 22.7958 11.3555 22.3125 11.3555H12.6875Z" fill="white"/>
<path d="M4.8125 15.7305C4.8125 15.2472 5.20424 14.8555 5.6875 14.8555H22.3125C22.7958 14.8555 23.1875 15.2472 23.1875 15.7305C23.1875 16.2137 22.7958 16.6055 22.3125 16.6055H5.6875C5.20424 16.6055 4.8125 16.2137 4.8125 15.7305Z" fill="white"/>
<path fill-rule="evenodd" clip-rule="evenodd" d="M7.21875 7.85547C5.64817 7.85547 4.375 9.12864 4.375 10.6992C4.375 12.2698 5.64817 13.543 7.21875 13.543C8.78933 13.543 10.0625 12.2698 10.0625 10.6992C10.0625 9.12864 8.78933 7.85547 7.21875 7.85547ZM6.125 10.6992C6.125 10.0952 6.61469 9.60547 7.21875 9.60547C7.82281 9.60547 8.3125 10.0952 8.3125 10.6992C8.3125 11.3033 7.82281 11.793 7.21875 11.793C6.61469 11.793 6.125 11.3033 6.125 10.6992Z" fill="white"/>
<path d="M8.3125 25.793C8.3125 25.3097 8.70424 24.918 9.1875 24.918H18.8125C19.2958 24.918 19.6875 25.3097 19.6875 25.793C19.6875 26.2762 19.2958 26.668 18.8125 26.668H9.1875C8.70424 26.668 8.3125 26.2762 8.3125 25.793Z" fill="white"/>
</g>
<defs>
<clipPath id="clip0_5532_669">
<rect width="28" height="28" fill="white" transform="translate(0 0.417969)"/>
</clipPath>
</defs>
</svg>
