<svg width="52" height="51" viewBox="0 0 52 51" fill="none" xmlns="http://www.w3.org/2000/svg">
<path d="M4.02946 34.0527C5.91005 35.7838 7.99852 37.2975 10.2478 38.5411V46.0438C9.72483 45.6699 9.22301 45.2631 8.73419 44.8348C5.41311 41.9622 2.81633 38.2628 1.23618 34.0527C0.700262 32.6131 0.279646 31.1192 -0.00292969 29.5725C1.20208 31.1949 2.54675 32.6889 4.02621 34.0527H4.02946ZM16.4417 26.3952C14.9752 25.9538 13.5493 25.3971 12.1836 24.753C9.87424 23.6742 7.72569 22.3219 5.7509 20.7406C3.76962 19.1594 1.96861 17.3327 0.40307 15.3232C0.269902 15.147 0.13511 14.9707 0.00194231 14.7863C0.0360463 14.9691 0.0685263 15.1453 0.10263 15.3232C1.0072 19.7161 2.99497 23.7087 5.75253 27.0145C5.80612 27.0755 5.85321 27.1364 5.90681 27.1974C6.77727 28.2219 7.72731 29.1739 8.73906 30.0485C11.0013 32.0169 13.6062 33.5932 16.4433 34.6852V49.4731C18.4116 50.2275 20.4871 50.7496 22.6421 51V27.624C20.5066 27.4131 18.4376 26.9997 16.4433 26.3952H16.4417ZM47.3204 34.0527C45.4398 35.7838 43.3579 37.2975 41.1086 38.5411V46.0438C41.6234 45.6633 42.1269 45.2565 42.6141 44.8348C45.9335 41.9622 48.5384 38.2628 50.1121 34.0527C50.6545 32.6131 51.0686 31.1192 51.3512 29.5725C50.1527 31.1949 48.8015 32.6889 47.3221 34.0527H47.3204ZM45.4463 27.1957C45.4999 27.1348 45.547 27.0738 45.6006 27.0129C48.3647 23.7071 50.3476 19.7145 51.2505 15.3216C51.2846 15.1453 51.3171 14.9691 51.3512 14.7846C51.218 14.9674 51.0832 15.1437 50.9501 15.3216C49.3829 17.3311 47.5835 19.1577 45.6022 20.739C43.6275 22.3202 41.4789 23.6725 39.1761 24.7514C37.8038 25.3971 36.3779 25.9538 34.9114 26.3936C32.9172 26.9981 30.8482 27.4115 28.7126 27.6223V50.9983C30.8742 50.748 32.9497 50.2242 34.9114 49.4715V34.6836C37.7502 33.5899 40.3535 32.0152 42.6157 30.0469C43.6258 29.1706 44.5775 28.2202 45.448 27.1957H45.4463ZM5.90681 12.4111C6.77727 13.4307 7.72406 14.3827 8.73581 15.2606C11.0013 17.2273 13.6062 18.8053 16.4433 19.894C18.4067 20.6484 20.4822 21.1705 22.6389 21.4275C23.6344 21.5461 24.651 21.6054 25.6758 21.6054C26.7005 21.6054 27.7171 21.5461 28.7126 21.4275C30.8709 21.1705 32.9464 20.6484 34.9082 19.894C37.747 18.8053 40.3518 17.2273 42.6157 15.2606C43.6258 14.3827 44.5742 13.4323 45.4447 12.4111C45.4983 12.3469 45.547 12.2876 45.6006 12.2233C48.3614 8.92084 50.3443 4.92326 51.2473 0.532022C51.2814 0.354132 51.3155 0.17789 51.3496 0C51.218 0.17789 51.0816 0.354132 50.9468 0.532022C49.3813 2.54316 47.5835 4.36653 45.6006 5.95436C43.6275 7.53725 41.474 8.8879 39.1712 9.96677C37.8005 10.6124 36.3763 11.1642 34.9098 11.609C32.9172 12.2151 30.8466 12.6285 28.7143 12.8361C27.7139 12.9299 26.7021 12.9794 25.6774 12.9794C24.6526 12.9794 23.6409 12.9299 22.6405 12.8361C20.5066 12.6285 18.436 12.2151 16.4449 11.609C14.9768 11.1659 13.5526 10.6141 12.1836 9.96677C9.88073 8.8879 7.72731 7.53725 5.75415 5.95436C3.768 4.36653 1.97023 2.54316 0.404694 0.532022C0.268278 0.354132 0.133486 0.17789 0.000318313 0C0.0344223 0.17789 0.0685263 0.354132 0.10263 0.532022C1.0072 4.92326 2.9901 8.92084 5.74928 12.2233C5.80287 12.2876 5.85159 12.3469 5.90518 12.4111H5.90681Z" fill="url(#paint0_linear_645_749)"/>
<defs>
<linearGradient id="paint0_linear_645_749" x1="23.6084" y1="7.12218" x2="34.2963" y2="46.4178" gradientUnits="userSpaceOnUse">
<stop stop-color="#8DCD8B"/>
<stop offset="1" stop-color="#488995"/>
</linearGradient>
</defs>
</svg>
